<?xml version="1.0" encoding="UTF-8" standalone="no"?>
<!DOCTYPE svg PUBLIC "-//W3C//DTD SVG 1.1//EN" "http://www.w3.org/Graphics/SVG/1.1/DTD/svg11.dtd">
<svg width="100%" height="100%" viewBox="0 0 2589 348" version="1.1" xmlns="http://www.w3.org/2000/svg" xmlns:xlink="http://www.w3.org/1999/xlink" xml:space="preserve" xmlns:serif="http://www.serif.com/" style="fill-rule:evenodd;clip-rule:evenodd;stroke-linecap:round;stroke-linejoin:round;stroke-miterlimit:1.5;">
    <g transform="matrix(1,0,0,1,-457.471213,-82.870587)">
        <g transform="matrix(1.500236,0,0,1.500236,-689.414631,-296.270815)">
            <g transform="matrix(1,0,0,1,254.425896,0.568369)">
                <path d="M919.35,288.161L875.349,368.453L919.35,446.471L861.868,446.471L817.867,368.453L861.868,288.161L919.35,288.161Z" style="fill:none;stroke:rgb(0,10,31);stroke-width:5px;"/>
            </g>
        </g>
        <g transform="matrix(1.500236,0,0,1.500236,-689.414631,-296.270815)">
            <g transform="matrix(1,0,0,1,380.886888,1.705106)">
                <path d="M919.35,288.161L875.349,368.453L919.35,446.471L861.868,446.471L817.867,368.453L861.868,288.161L919.35,288.161Z" style="stroke:rgb(0,10,31);stroke-width:5px;"/>
            </g>
        </g>
        <g transform="matrix(1.500236,0,0,1.500236,-689.414631,-296.270815)">
            <path d="M919.35,288.161L875.349,368.453L919.35,446.471L861.868,446.471L817.867,368.453L861.868,288.161L919.35,288.161Z" style="fill:none;stroke:rgb(0,10,31);stroke-width:5px;"/>
        </g>
        <g transform="matrix(1.500236,0,0,1.500236,-689.414631,-296.270815)">
            <g transform="matrix(1,0,0,1,126.460992,1.136738)">
                <path d="M919.35,288.161L875.349,368.453L919.35,446.471L861.868,446.471L817.867,368.453L861.868,288.161L919.35,288.161Z" style="stroke:rgb(0,10,31);stroke-width:5px;"/>
            </g>
        </g>
        <g transform="matrix(1.500236,0,0,1.500236,-689.414631,-296.270815)">
            <g transform="matrix(1,0,0,1,763.277665,1.420922)">
                <path d="M919.35,288.161L875.349,368.453L919.35,446.471L861.868,446.471L817.867,368.453L861.868,288.161L919.35,288.161Z" style="stroke:rgb(0,10,31);stroke-width:5px;"/>
            </g>
        </g>
        <g transform="matrix(1.500236,0,0,1.500236,-689.414631,-296.270815)">
            <g transform="matrix(1,0,0,1,889.738657,2.55766)">
                <path d="M919.35,288.161L875.349,368.453L919.35,446.471L861.868,446.471L817.867,368.453L861.868,288.161L919.35,288.161Z" style="fill:none;stroke:rgb(0,10,31);stroke-width:5px;"/>
            </g>
        </g>
        <g transform="matrix(1.500236,0,0,1.500236,-689.414631,-296.270815)">
            <g transform="matrix(1,0,0,1,508.851769,0.852553)">
                <path d="M919.35,288.161L875.349,368.453L919.35,446.471L861.868,446.471L817.867,368.453L861.868,288.161L919.35,288.161Z" style="stroke:rgb(0,10,31);stroke-width:5px;"/>
            </g>
        </g>
        <g transform="matrix(1.500236,0,0,1.500236,-689.414631,-296.270815)">
            <g transform="matrix(1,0,0,1,635.312761,1.989291)">
                <path d="M919.35,288.161L875.349,368.453L919.35,446.471L861.868,446.471L817.867,368.453L861.868,288.161L919.35,288.161Z" style="stroke:rgb(0,10,31);stroke-width:5px;"/>
            </g>
        </g>
        <g transform="matrix(1.500236,0,0,1.500236,-689.414631,-296.270815)">
            <g transform="matrix(1,0,0,1,1272.129412,1.420922)">
                <path d="M919.35,288.161L875.349,368.453L919.35,446.471L861.868,446.471L817.867,368.453L861.868,288.161L919.35,288.161Z" style="stroke:rgb(0,10,31);stroke-width:5px;"/>
            </g>
        </g>
        <g transform="matrix(1.500236,0,0,1.500236,-689.414631,-296.270815)">
            <g transform="matrix(1,0,0,1,1398.590404,2.55766)">
                <path d="M919.35,288.161L875.349,368.453L919.35,446.471L861.868,446.471L817.867,368.453L861.868,288.161L919.35,288.161Z" style="fill:none;stroke:rgb(0,10,31);stroke-width:5px;"/>
            </g>
        </g>
        <g transform="matrix(1.500236,0,0,1.500236,-689.414631,-296.270815)">
            <g transform="matrix(1,0,0,1,1528.159134,2.55766)">
                <path d="M919.35,288.161L875.349,368.453L919.35,446.471L861.868,446.471L817.867,368.453L861.868,288.161L919.35,288.161Z" style="fill:none;stroke:rgb(0,10,31);stroke-width:5px;"/>
            </g>
        </g>
        <g transform="matrix(1.500236,0,0,1.500236,-689.414631,-296.270815)">
            <g transform="matrix(1,0,0,1,1017.703516,0.852553)">
                <path d="M919.35,288.161L875.349,368.453L919.35,446.471L861.868,446.471L817.867,368.453L861.868,288.161L919.35,288.161Z" style="stroke:rgb(0,10,31);stroke-width:5px;"/>
            </g>
        </g>
        <g transform="matrix(1.500236,0,0,1.500236,-689.414631,-296.270815)">
            <g transform="matrix(1,0,0,1,1144.164508,1.989291)">
                <path d="M919.35,288.161L875.349,368.453L919.35,446.471L861.868,446.471L817.867,368.453L861.868,288.161L919.35,288.161Z" style="stroke:rgb(0,10,31);stroke-width:5px;"/>
            </g>
        </g>
        <g transform="matrix(1.500236,0,0,1.500236,-689.414631,-296.270815)">
            <path d="M2487.248,255.221L2487.248,481.684L828.81,480.212L766.97,367.915L827.337,258.166L2487.248,255.221Z" style="fill:none;stroke:rgb(0,10,31);stroke-width:5px;"/>
        </g>
    </g>
</svg>
